<?xml version="1.0" standalone="no"?>
<!DOCTYPE svg PUBLIC "-//W3C//DTD SVG 20010904//EN"
 "http://www.w3.org/TR/2001/REC-SVG-20010904/DTD/svg10.dtd">
<svg version="1.0" xmlns="http://www.w3.org/2000/svg"
 width="311.000000pt" height="26.000000pt" viewBox="0 0 311.000000 26.000000"
 preserveAspectRatio="xMidYMid meet">
<metadata>
Created by potrace 1.15, written by Peter Selinger 2001-2017
</metadata>
<g transform="translate(0.000000,26.000000) scale(0.100000,-0.100000)"
fill="#000000" stroke="none">
<path d="M1139 201 c-39 -39 -41 -106 -5 -147 21 -25 31 -28 90 -30 l66 -3 0
35 c0 41 -10 43 -45 8 -38 -38 -55 -19 -55 60 0 33 4 67 9 75 12 18 48 5 56
-20 10 -30 35 -23 35 10 0 32 -17 41 -83 41 -29 0 -46 -7 -68 -29z"/>
<path d="M1331 204 c-26 -22 -31 -33 -31 -71 0 -55 12 -78 50 -98 83 -43 170
8 170 100 0 57 -44 95 -108 95 -40 0 -57 -6 -81 -26z"/>
<path d="M1530 220 c0 -5 7 -10 15 -10 12 0 15 -16 15 -80 0 -62 -3 -82 -15
-86 -30 -12 -14 -24 30 -24 25 0 45 5 45 10 0 6 -7 10 -15 10 -12 0 -15 13
-15 60 0 33 2 60 4 60 2 0 27 -31 57 -70 31 -41 60 -70 71 -70 16 0 18 10 18
95 0 95 0 95 25 95 25 0 25 -1 25 -80 0 -62 -3 -82 -15 -86 -30 -12 -14 -24
30 -24 25 0 45 5 45 10 0 6 -7 10 -15 10 -12 0 -15 13 -15 60 0 33 2 60 4 60
2 0 27 -31 57 -70 31 -41 60 -70 71 -70 16 0 18 10 18 95 l0 95 30 0 30 0 0
-85 c0 -69 -3 -85 -15 -85 -8 0 -15 -4 -15 -10 0 -6 43 -10 110 -10 81 0 110
3 110 13 0 6 3 22 6 35 9 31 -18 29 -50 -3 -14 -14 -34 -25 -46 -25 -17 0 -20
6 -20 43 l1 42 18 -22 c29 -35 41 -28 41 22 0 49 -11 56 -42 28 -17 -15 -18
-14 -18 20 0 32 3 37 23 37 13 0 32 -9 42 -20 27 -29 45 -25 45 10 l0 30 -155
0 c-97 0 -155 -4 -155 -10 0 -5 7 -10 15 -10 10 0 15 -11 15 -35 0 -19 -1 -35
-3 -35 -2 0 -18 20 -37 45 l-34 45 -93 0 c-55 0 -93 -4 -93 -10 0 -5 7 -10 15
-10 10 0 15 -11 15 -35 0 -19 -1 -35 -3 -35 -2 0 -18 20 -37 45 -33 43 -36 45
-87 45 -29 0 -53 -4 -53 -10z"/>
<path d="M2269 201 c-39 -39 -41 -106 -5 -147 21 -25 31 -28 90 -30 l66 -3 0
35 c0 41 -10 43 -45 8 -38 -38 -55 -19 -55 60 0 33 4 67 9 75 12 18 48 5 56
-20 10 -30 35 -23 35 10 0 32 -17 41 -83 41 -29 0 -46 -7 -68 -29z"/>
<path d="M2430 195 c0 -43 16 -45 47 -7 l22 27 1 -87 c0 -72 -3 -88 -15 -88
-8 0 -15 -4 -15 -10 0 -6 30 -10 70 -10 40 0 70 4 70 10 0 6 -7 10 -15 10 -12
0 -15 16 -15 86 0 76 2 85 15 74 8 -7 15 -19 15 -26 0 -8 7 -14 15 -14 10 0
15 11 15 35 l0 35 -105 0 -105 0 0 -35z"/>
</g>
</svg>
